<?xml version="1.0" encoding="utf-8"?>
<!-- Svg Vector Icons : http://www.onlinewebfonts.com/icon -->
<!DOCTYPE svg PUBLIC "-//W3C//DTD SVG 1.1//EN" "http://www.w3.org/Graphics/SVG/1.1/DTD/svg11.dtd">
<svg version="1.1" xmlns="http://www.w3.org/2000/svg" xmlns:xlink="http://www.w3.org/1999/xlink" x="0px" y="0px" viewBox="0 0 1000 1000" enable-background="new 0 0 1000 1000" xml:space="preserve">
<metadata> Svg Vector Icons : http://www.onlinewebfonts.com/icon </metadata>
<g><g transform="translate(0.000000,511.000000) scale(0.100000,-0.100000)"><path d="M7913.1,4550.1c-616.3-252-1143.9-474.5-1167.6-494.2c-41.4-33.5-70.9-137.8-212.6-746.2c-90.6-389.8-165.4-714.7-165.4-722.6c0-9.8-458.8-15.8-1017.9-15.8H4329.7l-35.4,141.8c-19.7,76.8-68.9,214.6-112.2,307.1c-236.3,504-693.1,878.1-1234.5,1012c-244.1,61-616.3,59.1-860.4,0C1421.6,3866.9,905.7,3351,734.4,2679.6c-61-244.1-63-614.3-2-864.3c133.9-541.5,500.1-988.4,1010.1-1232.5c273.7-130,433.2-163.4,775.7-163.4c328.8,0,478.4,29.5,758,149.6l149.6,65L4197.8-193l771.8-828.9v-1157.7c0-1299.5,7.9-1224.7-149.6-1334.9c-218.5-149.6-513.9-252-882.1-303.2c-153.6-21.7-242.2-45.3-311.1-82.7c-326.8-177.2-322.9-641.9,7.9-823l104.3-59.1l1809.4-5.9c1630.3-3.9,1819.3-2,1907.9,27.5c324.9,108.3,433.2,508,208.7,764c-102.4,116.2-175.2,145.7-456.8,189c-502.1,78.8-923.4,250.1-1008.1,413.5c-25.6,49.2-29.5,224.5-29.5,1214.8v1157.7l1390,1486.5c1301.5,1394,1390.1,1492.4,1417.6,1590.9c25.6,86.6,27.6,120.1,5.9,204.8c-29.5,124-153.6,257.9-265.8,289.4c-49.2,13.8-407.6,21.7-1006.1,21.7c-511.9,0-931.3,5.9-931.3,15.8c2,27.6,269.8,1167.6,277.6,1173.5c3.9,3.9,490.3,204.8,1080.9,445c590.7,240.2,1092.8,454.8,1116.4,476.5c88.6,82.7,68.9,256-31.5,311.1C9131.9,5042.3,9033.4,5008.8,7913.1,4550.1z M2912.1,3666.1c175.2-80.7,177.2-57.1-72.9-511.9c-122.1-222.5-224.5-399.7-228.4-395.8c-7.9,5.9-114.2,736.4-126,856.5c-5.9,61,0,68.9,53.2,80.7C2669.9,3725.1,2811.6,3713.3,2912.1,3666.1z M2173.7,3626.7c0-3.9,27.6-198.9,59.1-435.1c33.5-234.3,57.1-437.1,55.1-446.9c-3.9-11.8-149.6,130-324.9,313.1l-319,332.7l43.3,49.2c74.8,84.7,128,120.1,234.3,157.5C2012.3,3628.6,2173.7,3648.3,2173.7,3626.7z M3487,3355c84.7-51.2,181.1-163.4,226.4-267.8c21.7-47.3,35.4-88.6,31.5-90.6c-7.9-7.9-720.6-344.6-801.3-380l-65-27.6l59.1,104.4c31.5,57.1,108.3,196.9,171.3,311.1c238.2,433.2,226.4,415.4,271.7,401.7C3404.3,3400.2,3451.5,3376.6,3487,3355z M1756.3,2817.5c173.3-183.1,315-334.7,313.1-336.7s-210.7,33.5-460.7,78.8l-458.8,80.7v70.9c0,122.1,57.1,250,159.5,354.4c53.2,55.1,104.4,96.5,112.2,92.5C1431.4,3154.1,1581.1,3002.5,1756.3,2817.5z M3922.1,2679.6c23.6-49.2,43.3-94.5,43.3-98.4c0-5.9-104.3-9.9-230.4-9.9h-232.3l177.2,96.5c98.4,53.2,181.1,98.4,189,98.4C3874.9,2768.2,3898.5,2728.8,3922.1,2679.6z M1563.3,2266.2c222.5-39.4,415.4-74.8,431.2-80.7c15.8-3.9-161.4-102.4-391.8-216.6c-230.4-114.2-431.2-202.8-445-196.9c-41.3,15.8-114.2,196.9-122.1,307.2c-3.9,59.1,2,147.7,15.7,194.9c19.7,72.9,27.6,82.7,65,74.8C1140,2342.9,1340.9,2305.5,1563.3,2266.2z M8551.1,2124.4c-15.8-19.7-645.8-697-1399.9-1506.2L5776.8-852.6v-1295.6v-1295.5l47.3-98.4c145.7-315,632-561.1,1321.1-669.4c210.7-33.5,269.7-65,234.3-124c-19.7-31.5-135.9-33.5-1801.6-33.5H3798.1l-5.9,53.2c-7.9,66.9,27.6,84.7,191,102.4c196.9,21.7,584.8,126,777.7,210.7c303.2,130,464.7,263.8,555.3,458.8l47.2,100.4l-2,1299.5v1299.5l-1396,1494.4C3195.6,1472.7,2567.5,2148,2567.5,2152c0,2,1352.7,5.9,3004.6,5.9C8417.1,2157.9,8576.6,2155.9,8551.1,2124.4z M1933.5,1476.6c-120.1-226.4-222.5-415.4-224.5-419.4c-11.8-13.8-126,41.3-204.8,98.4c-78.8,57.1-196.9,236.3-196.9,299.3c0,27.6,102.4,84.7,419.4,238.2c228.4,112.2,419.4,200.8,421.4,198.9C2152.1,1890.1,2055.6,1703,1933.5,1476.6z M2506.5,1252.2c33.5-232.3,61-429.2,61-437.1c0-31.5-210.7-57.1-303.2-35.4c-112.2,25.6-246.1,90.6-259.9,126c-13.8,35.4,405.6,807.3,425.3,785.6C2439.5,1683.3,2473,1484.5,2506.5,1252.2z M3158.2,891.8c-15.7-17.7-256-55.1-277.6-43.3c-5.9,5.9-23.6,82.7-35.4,171.3c-13.8,90.6-27.6,191-33.5,222.5c-9.8,51.2,13.8,33.5,175.2-137.8C3089.3,996.2,3168,899.7,3158.2,891.8z"/><path d="M3664.2,1453c-5.9-7.9,0-45.3,13.8-84.7C3780.4,1071,4465.5,385.8,5058.2-9.9C5416.5-250.1,5560.3-287.5,5767-197C6129.3-35.5,6851.9,557.1,7214.1,992.3c159.5,189,291.4,415.4,265.8,454.8C7466.2,1472.7,3678,1478.6,3664.2,1453z"/></g></g>
</svg>